<?xml version="1.0" encoding="UTF-8"?><svg id="Layer_2" xmlns="http://www.w3.org/2000/svg" viewBox="0 0 150.09 150.09"><defs><style>.cls-1{fill:#fff;}.cls-2{fill:#ae3db7;}</style></defs><g id="Layer_1-2"><path class="cls-2" d="M75.05,140.09c-35.87,0-65.05-29.18-65.05-65.05S39.18,10,75.05,10s65.05,29.18,65.05,65.05-29.18,65.05-65.05,65.05Z"/><path class="cls-1" d="M75.05,20c30.35,0,55.05,24.69,55.05,55.05s-24.69,55.05-55.05,55.05-55.05-24.69-55.05-55.05,24.69-55.05,55.05-55.05M75.05,0C33.6,0,0,33.6,0,75.05s33.6,75.05,75.05,75.05,75.05-33.6,75.05-75.05S116.49,0,75.05,0h0Z"/></g></svg>