<?xml version="1.0" encoding="UTF-8"?><svg id="Layer_2" xmlns="http://www.w3.org/2000/svg" viewBox="0 0 151.91 161.85"><defs><style>.cls-1{fill:#0072cc;}.cls-2{opacity:.34;}</style></defs><g id="Layer_1-2"><g class="cls-2"><path class="cls-1" d="M85.32,161.85L0,25.82l6.91-4.92c1.82-1.3,45.53-31.56,134.46-16.9l10.54,1.74-3.5,10.09c-21.39,61.73-55.61,130.92-55.95,131.61l-7.14,14.4ZM24.82,31.53l58.53,93.32c10.21-21.58,29.55-63.86,44.4-104.65-54.71-6.98-88.81,4.71-102.93,11.33Z"/></g><g class="cls-2"><path class="cls-1" d="M96.95,48.26c-1.19-.85-2.51-1.47-3.85-2.04-.59-.25-1.18-.5-1.77-.74-.15-.07-.3-.13-.45-.2-.73-.32-1.45-.67-2.14-1.07-.31-.18-.61-.39-.92-.58.53.33-.14-.12-.32-.28-.09-.08-.17-.18-.26-.26.07-.08.14-.16.17-.2.23-.25.48-.47.73-.71,0,0,.04-.04.08-.07.1-.08.28-.21.32-.24.37-.25.76-.48,1.16-.69.19-.1.71-.28.7-.29.58-.17,1.17-.33,1.76-.48.07,0,.53-.09.74-.1.45-.02.9-.02,1.35.02.1,0,.2.02.3.03.04,0,.08.02.15.03.44.11.88.21,1.31.35,1.98.63,4.42-.74,4.88-2.77.49-2.17-.65-4.2-2.77-4.88-3.27-1.04-7.04-.97-10.25.27-3.55,1.38-7.34,3.99-8.53,7.8-1.43,4.59,2.45,8.43,6.17,10.34.71.37,1.45.69,2.19,1,.54.23,1.09.46,1.63.69.01,0,.09.04.16.07.12.05.36.16.4.17.68.31,1.36.64,2,1.02.3.18.59.37.88.56.03.02.08.06.13.1-.03-.03-.06-.06-.11-.1.05.04.09.08.14.13.07.06.12.11.12.11.08.07.17.14.25.22.02.02.05.05.07.07-.4.18-.76.31-1.52.54-1.07.33-2.16.56-3.26.72-2.06.29-3.37,3.02-2.77,4.88.73,2.26,2.67,3.09,4.88,2.77,1.81-.26,3.54-.74,5.22-1.44,2.01-.84,4.38-1.79,5.52-3.77,2.38-4.11-1.33-8.71-4.53-10.98Z"/></g><g class="cls-2"><path class="cls-1" d="M92.93,55.12c.1.09.15.13.15.13-.04-.04-.08-.07-.12-.11-.01,0-.02-.02-.03-.03Z"/></g><g class="cls-2"><path class="cls-1" d="M82.84,74.39c.49-.87.68-1.91.35-2.91-.65-2.01-2.75-3.41-4.88-2.77-2.26.67-4.52,1.34-6.78,2.02-1.08.32-2.16.63-3.23.99-1.58.53-3.38,1.03-4.43,2.39-1.22,1.58-1.11,4.03.39,5.42.4.37.87.7,1.3,1.04.88.71,1.76,1.42,2.63,2.15,1.77,1.48,3.51,3,5.21,4.55.21.19.42.34.64.49.15.13.28.26.43.39,1.11.93,2.4,1.42,3.86,1.02,1.28-.35,2.48-1.44,2.77-2.77.57-2.6.68-5.25.99-7.88.23-1.35.64-2.74.73-4.12Z"/></g><g class="cls-2"><path class="cls-1" d="M60.19,37.26c-4.67,0-9.15,4.11-8.93,8.93.22,4.84,3.92,8.93,8.93,8.93,4.67,0,9.15-4.11,8.93-8.93-.22-4.84-3.92-8.93-8.93-8.93Z"/></g></g></svg>