<?xml version="1.0" encoding="UTF-8"?><svg id="Layer_2" xmlns="http://www.w3.org/2000/svg" viewBox="0 0 195.27 101.39"><defs><style>.cls-1{fill:#dfe8ef;opacity:.34;}</style></defs><g id="Layer_1-2"><path class="cls-1" d="M8.94,40.21C4.27,40.21-.21,44.32,0,49.14c.22,4.84,3.92,8.93,8.93,8.93,4.67,0,9.15-4.11,8.93-8.93-.22-4.84-3.92-8.93-8.93-8.93Z"/><path class="cls-1" d="M186.33,83.44c-19.93.43-39.87-.69-59.63-3.32-7.42-1-14.92-2.12-21.91-4.86-1.82-.84-3.56-1.82-5.2-2.97-.68-.59-1.32-1.22-1.93-1.89-.47-.69-.89-1.41-1.27-2.16-.2-.62-.37-1.25-.51-1.88-.05-.8-.04-1.6,0-2.41.36-1.88.92-3.71,1.62-5.49,2.04-4.49,4.6-8.73,6.68-13.21,2.67-5.77,4.97-12.1,4.27-18.58-.44-4.1-1.48-7.98-3.71-11.52-2.18-3.46-4.92-6.09-8.15-8.52C90.79,2.24,83.33.22,76.13.02c-9.2-.26-18.21,2.47-26.86,5.28-2.2.71-4.15,2.08-5.34,4.1-1.12,1.91-1.59,4.73-.9,6.88,1.43,4.43,6.23,7.78,10.98,6.24,5.4-1.75,10.84-3.47,16.45-4.38,2.66-.28,5.33-.35,8-.1,1.59.3,3.14.73,4.66,1.29,1.31.63,2.56,1.36,3.75,2.19.77.67,1.49,1.39,2.16,2.16.41.61.78,1.24,1.12,1.89.22.65.4,1.32.55,1.99.05.82.05,1.65,0,2.47-.37,1.96-.96,3.87-1.7,5.72-3.29,7.25-7.94,13.95-9.95,21.73-2.54,9.85.02,20.5,7.82,27.32,7.01,6.13,16.04,9.29,25.08,10.96,11.65,2.15,23.53,3.46,35.33,4.4,12.99,1.04,26.03,1.4,39.06,1.12,4.67-.1,9.15-4.04,8.93-8.93-.21-4.75-3.93-9.04-8.93-8.93Z"/><path class="cls-1" d="M163.96,22.29c-4.67,0-9.15,4.11-8.93,8.93.22,4.84,3.92,8.93,8.93,8.93,4.67,0,9.15-4.11,8.93-8.93-.22-4.84-3.92-8.93-8.93-8.93Z"/></g></svg>