<?xml version="1.0" encoding="UTF-8"?><svg id="Layer_2" xmlns="http://www.w3.org/2000/svg" xmlns:xlink="http://www.w3.org/1999/xlink" viewBox="0 0 1100 250"><defs><style>.cls-1{fill:none;}.cls-2{fill:#0072cc;}.cls-3{fill:#dfe8ef;opacity:.34;}.cls-4{clip-path:url(#clippath-2);}</style><clipPath id="clippath-2"><rect class="cls-1" width="1100" height="250"/></clipPath></defs><g id="Layer_1-2"><rect class="cls-2" width="1100" height="250"/><g class="cls-4"><path class="cls-3" d="M114.16,100.05c-4.67,0-9.15,4.11-8.93,8.93.22,4.84,3.92,8.93,8.93,8.93,4.67,0,9.15-4.11,8.93-8.93-.22-4.84-3.92-8.93-8.93-8.93Z"/><path class="cls-3" d="M34.69,201.32c-4.67,0-9.15,4.11-8.93,8.93.22,4.84,3.92,8.93,8.93,8.93,4.67,0,9.15-4.11,8.93-8.93-.22-4.84-3.92-8.93-8.93-8.93Z"/><path class="cls-3" d="M119.52,185.81c-3.98-9.94-10.56-18.54-19-25.14-9.25-7.23-19.8-11.93-30.56-16.46-2.2-.93-4.41-1.84-6.61-2.77-7.52-3.18-15.15-6.55-21.74-11.41-1.69-1.39-3.25-2.91-4.66-4.59-.69-1-1.31-2.05-1.85-3.15-.31-.89-.55-1.79-.74-2.71-.06-.88-.05-1.75,0-2.63.22-1.12.53-2.21.91-3.28.66-1.38,1.44-2.69,2.32-3.94,1.21-1.44,2.54-2.76,3.98-3.97,1.69-1.2,3.48-2.23,5.36-3.1,3.32-1.26,6.77-2.1,10.27-2.65,5.97-.69,11.98-.7,17.98-.66,4.67.03,9.14-4.13,8.93-8.93-.22-4.86-3.92-8.9-8.93-8.93-9.63-.06-19.5.01-28.86,2.58-4.58,1.26-9.19,3.11-13.13,5.79-4.34,2.95-7.85,6.41-10.91,10.66-5.46,7.58-7.65,18.25-4.2,27.12,1.86,4.78,4.54,8.96,8.19,12.6,3.19,3.17,6.93,5.89,10.78,8.2,8.79,5.27,18.49,8.94,27.92,12.89,8.26,3.51,16.53,7.31,23.77,12.66,3.25,2.62,6.22,5.55,8.84,8.8,1.91,2.61,3.56,5.37,4.9,8.31.82,2.15,1.44,4.36,1.84,6.63.17,1.85.17,3.71,0,5.56-.33,1.79-.81,3.54-1.44,5.24-.84,1.77-1.83,3.46-2.97,5.06-1.86,2.25-3.96,4.28-6.23,6.12-4.64,3.4-9.74,6.09-15.01,8.38-8.62,3.54-17.6,6.23-26.5,8.97-10.68,3.29-21.43,6.36-32.24,9.22-21.61,5.72-43.45,10.57-65.45,14.55-11.95,2.16-23.96,4.05-35.99,5.69-4.26.57-8.53,1.11-12.8,1.61-2.45.29-4.5.8-6.31,2.62-1.55,1.55-2.72,4.09-2.62,6.31.1,2.31.86,4.7,2.62,6.31,1.63,1.49,4.02,2.89,6.31,2.62,23.47-2.77,46.84-6.42,70.01-11.09,22.54-4.54,44.9-10.01,66.99-16.38,10.74-3.1,21.47-6.34,32.05-9.96,8.55-2.93,17.14-6.36,24.78-11.25,7.72-4.94,15.07-11.56,18.92-20.05,2.36-5.19,3.8-10.54,3.88-16.28.07-5.13-.92-10.44-2.83-15.2Z"/><path class="cls-3" d="M930.24,206.73c-4.67,0-9.15,4.11-8.93,8.93.22,4.84,3.92,8.93,8.93,8.93,4.67,0,9.15-4.11,8.93-8.93-.22-4.84-3.92-8.93-8.93-8.93Z"/><path class="cls-3" d="M1066.16,183.64c-4.67,0-9.15,4.11-8.93,8.93.22,4.84,3.92,8.93,8.93,8.93,4.67,0,9.15-4.11,8.93-8.93-.22-4.84-3.92-8.93-8.93-8.93Z"/><path class="cls-3" d="M1163.02,297.81c-3.54-3.25-9.13-3.56-12.63,0-.61.62-1.25,1.19-1.91,1.75-1.27.88-2.6,1.66-4,2.33-1.91.72-3.87,1.24-5.87,1.59-2.69.27-5.4.25-8.09-.03-3.04-.51-6.02-1.32-8.9-2.43-3.21-1.46-6.21-3.3-9.04-5.4-4.68-3.8-8.78-8.22-12.52-12.93-9.18-12.09-16.4-25.51-25.87-37.41-9.81-12.33-22.7-22.12-38.24-25.76-15.28-3.58-31.64-1.95-46.3,3.43-7.46,2.74-14.59,6.24-21.2,10.64-6.83,4.53-13.24,9.74-19.19,15.38-11.58,10.96-21.43,23.55-31.12,36.16-1.16,1.51-2.33,3.03-3.49,4.55-1.31,1.71-1.44,4.92-.9,6.88.57,2.07,2.17,4.32,4.1,5.34,2.07,1.09,4.58,1.64,6.88.9.71-.3,1.42-.6,2.13-.9,1.34-.79,2.41-1.86,3.2-3.2,1.47-1.92,2.93-3.83,4.41-5.74,8.85-11.42,18.02-22.67,28.64-32.51,2.72-2.52,5.54-4.93,8.46-7.23,6.24-4.71,12.9-8.8,20.07-11.95,6.18-2.5,12.62-4.3,19.22-5.3,5.29-.61,10.63-.66,15.93-.06,4.09.65,8.09,1.7,11.95,3.19,3.73,1.66,7.23,3.73,10.5,6.16,4.73,3.84,8.88,8.31,12.65,13.09,10.23,13.51,17.99,28.75,29.29,41.48,5.67,6.39,12.49,12.34,20.21,16.1,7.69,3.74,16.26,5.95,24.86,5.62,9.96-.38,19.7-3.91,26.77-11.1,3.28-3.33,3.57-9.35,0-12.63Z"/></g></g></svg>