<?xml version="1.0" encoding="UTF-8"?><svg id="uuid-df76b80d-ad24-4091-9dca-f9706f2416cf" xmlns="http://www.w3.org/2000/svg" width="19.61" height="15.77" viewBox="0 0 19.61 15.77"><defs><style>.uuid-f6f752d0-b640-4186-95b4-73c7492b31b9{fill:#0072cc;}</style></defs><g id="uuid-459644e5-031a-4d69-b260-159c665bffd8"><path class="uuid-f6f752d0-b640-4186-95b4-73c7492b31b9" d="M15.28,7.61c.95-.68,1.9-1.36,2.85-2.04,1.26-.9,1.99-2.63,1.07-4.07-.81-1.25-2.72-2.04-4.07-1.07-1.62,1.16-3.23,2.32-4.85,3.48-1.87-1.21-3.82-2.29-5.83-3.23C3.03.02,1.17.24.37,1.75-.33,3.06-.07,5.12,1.44,5.82c1.22.57,2.42,1.19,3.58,1.85-1.08.77-2.15,1.54-3.23,2.32-1.26.9-1.99,2.63-1.07,4.07.81,1.25,2.72,2.04,4.07,1.07,1.83-1.31,3.66-2.63,5.5-3.94.1.08.21.16.31.25.24.2.49.4.73.6,1.08.91,2.11,1.87,3.11,2.88,1.1,1.11,3.13,1.18,4.21,0,1.09-1.19,1.17-3.03,0-4.21-1.07-1.08-2.19-2.11-3.36-3.09Z"/></g></svg>