<?xml version="1.0" encoding="UTF-8"?><svg id="uuid-e49980ca-a280-473e-b14c-6f60b7da0511" xmlns="http://www.w3.org/2000/svg" width="1200" height="62.76" xmlns:xlink="http://www.w3.org/1999/xlink" viewBox="0 0 1200 62.76"><defs><style>.uuid-de74eebc-56ac-4aa1-a035-639f85493eb7{fill:none;}.uuid-28b62beb-792c-47a1-b7d2-2d9d1b7f15f6{fill:#0072cc;}.uuid-3b6ac16d-36db-4d2d-b412-89b418af1846{clip-path:url(#uuid-ed6bfd19-3d5e-4fd0-8661-ee803cccfe09);}.uuid-2fa5a8c0-d306-4c27-ba88-7eab8d10aa39{fill:#dfe8ef;opacity:.34;}.uuid-4097dce5-571e-48d6-98a7-a2c80a487944{clip-path:url(#uuid-af1d6b20-a764-4af0-96e6-414393e1d3d7);}</style><clipPath id="uuid-ed6bfd19-3d5e-4fd0-8661-ee803cccfe09"><rect class="uuid-de74eebc-56ac-4aa1-a035-639f85493eb7" width="1200" height="62.76"/></clipPath><clipPath id="uuid-af1d6b20-a764-4af0-96e6-414393e1d3d7"><rect class="uuid-de74eebc-56ac-4aa1-a035-639f85493eb7" width="1199.87" height="62.76"/></clipPath></defs><g id="uuid-227e72f7-d523-494a-9193-68f9ccd5792c"><rect class="uuid-28b62beb-792c-47a1-b7d2-2d9d1b7f15f6" width="1200" height="62.76"/><path class="uuid-2fa5a8c0-d306-4c27-ba88-7eab8d10aa39" d="M315.61,16.86c-4.67,0-9.15,4.11-8.93,8.93.22,4.84,3.92,8.93,8.93,8.93,4.67,0,9.15-4.11,8.93-8.93-.22-4.84-3.92-8.93-8.93-8.93Z"/><path class="uuid-2fa5a8c0-d306-4c27-ba88-7eab8d10aa39" d="M47.21,26.91c-4.67,0-9.15,4.11-8.93,8.93.22,4.84,3.92,8.93,8.93,8.93,4.67,0,9.15-4.11,8.93-8.93-.22-4.84-3.92-8.93-8.93-8.93Z"/><path class="uuid-2fa5a8c0-d306-4c27-ba88-7eab8d10aa39" d="M1064.84,21.17c-4.67,0-9.15,4.11-8.93,8.93.22,4.84,3.92,8.93,8.93,8.93,4.67,0,9.15-4.11,8.93-8.93-.22-4.84-3.92-8.93-8.93-8.93Z"/><g class="uuid-3b6ac16d-36db-4d2d-b412-89b418af1846"><path class="uuid-2fa5a8c0-d306-4c27-ba88-7eab8d10aa39" d="M1033.44,80.98c4.3.67,8.61,1.92,12.82,3.59,23.42.79,46.93-.09,70.28,2.29,5.43.55,11.01,1.37,16.67,2.21,1.92-1.22,3.99-2.24,6.2-3.12-3.41-.38-6.82-.79-10.23-1.24-17.23-2.37-34.34-5.58-51.24-9.65-17.22-4.15-34.24-9.19-50.94-15.09-9.12-3.22-18.14-6.72-27.06-10.45-15.13-6.43-29.95-13.59-44.37-21.48-7.37-4.03-14.64-8.26-21.8-12.67-7.46-4.6-14.82-9.4-22.59-13.47-8.03-4.21-16.65-7.94-25.65-9.42-9.16-1.5-18.62-1.27-27.41,1.99-15.84,5.88-28.43,18.51-35.92,33.51-8.71,17.44-11.04,36.95-12.47,56.14-.17,2.28-.33,4.56-.48,6.85-.15,2.19,1.1,4.8,2.62,6.31,1.55,1.55,4.09,2.72,6.31,2.62,5.11-.23,8.59-3.93,8.93-8.93.54-7.86,1.11-15.72,2.12-23.54,1.34-9.36,3.43-18.63,6.99-27.41,2.1-4.72,4.68-9.2,7.75-13.35,2.78-3.48,5.91-6.67,9.37-9.48,2.79-2.04,5.75-3.81,8.9-5.23,2.72-1.05,5.52-1.82,8.39-2.31,3.33-.34,6.68-.32,10.01.05,4.9.8,9.65,2.27,14.25,4.13,13.08,5.73,24.82,14.06,37.06,21.32,12.23,7.25,24.77,13.96,37.58,20.12,13.43,6.46,27.16,12.35,41.09,17.66,7.54,2.87,15.16,5.55,22.83,8.06Z"/><path class="uuid-2fa5a8c0-d306-4c27-ba88-7eab8d10aa39" d="M1200.46,22.81c-.09-.5-.16-.98-.18-1.45-3.68-2.08-7.4-4.09-11.07-6.15l-20.93-11.71c-5.71-3.2-11.68-6.16-16.97-10.04-1.36-1.13-2.64-2.34-3.8-3.69-.43-.63-.82-1.28-1.17-1.96-.16-.49-.3-.98-.41-1.48-.03-.57-.03-1.15,0-1.72.13-.59.29-1.18.49-1.76.51-1.04,1.11-2.03,1.76-2.98,1.98-2.39,4.26-4.51,6.69-6.44,9.84-7.4,20.66-13.53,31.96-18.39,2.75-1.13,5.54-2.18,8.35-3.15-.77-4.85-1.44-9.73-2.41-14.51-1.5-.36-2.88-1.07-3.95-2.15-6.82,2.43-13.48,5.28-19.93,8.54-5.58,2.82-11,5.97-16.21,9.43-5.5,3.66-11.15,7.53-15.68,12.37-5.09,5.45-9.02,12.32-8.97,19.97.04,7.11,3.41,13.6,8.39,18.52,4.36,4.31,9.7,7.49,15.01,10.46,6.4,3.58,12.79,7.16,19.19,10.74,7.12,3.99,14.25,7.97,21.37,11.96,2.87,1.61,5.72,3.27,8.49,5.04v-19.46Z"/></g><g class="uuid-4097dce5-571e-48d6-98a7-a2c80a487944"><path class="uuid-2fa5a8c0-d306-4c27-ba88-7eab8d10aa39" d="M493.43,185.53c-1.2-1.87-3.07-3.67-5.34-4.1-22.24-4.25-44.12-10.36-65.37-18.21-5.69-2.1-11.32-4.33-16.92-6.68-12.63-5.38-24.99-11.36-37.04-17.94-12.54-6.85-24.74-14.34-36.52-22.42-6.25-4.29-12.39-8.75-18.4-13.37-15.01-11.68-29.25-24.35-42.52-37.97-6.96-7.14-13.58-14.57-20.09-22.13-6.98-8.11-13.95-16.28-21.72-23.66-15.94-15.15-36.34-27.58-58.99-27.58-20.73,0-39.96,11.2-53.4,26.43-14.64,16.59-22.87,37.36-29.99,58.02-.87,2.52-1.72,5.04-2.57,7.56-1.5,4.43,1.72,9.96,6.24,10.98,4.95,1.13,9.38-1.49,10.98-6.24,3.08-9.1,6.18-18.21,9.87-27.09,4.11-9.57,8.99-18.86,15.27-27.2,3.94-4.93,8.39-9.44,13.32-13.39,4.04-3,8.37-5.6,12.97-7.65,3.79-1.5,7.71-2.6,11.73-3.25,3.83-.41,7.67-.39,11.5.02,4.82.76,9.51,2.11,14.04,3.91,6.22,2.74,12.05,6.27,17.49,10.35,8.93,7.06,16.73,15.42,24.21,23.98,7.34,8.4,14.51,16.93,22.18,25.05,14.53,15.38,30.27,29.62,46.99,42.6,17.23,13.38,35.31,25.56,54.35,36.22,19.02,10.66,38.87,19.83,59.26,27.54,19.79,7.48,40.16,13.47,60.87,17.83,2.51.53,5.02,1.03,7.53,1.51,2.39.46,4.72.36,6.88-.9,1.85-1.08,3.62-3.21,4.1-5.34.52-2.29.41-4.85-.9-6.88Z"/></g></g></svg>