<?xml version="1.0" encoding="UTF-8"?><svg id="Layer_2" xmlns="http://www.w3.org/2000/svg" viewBox="0 0 132.7 63.83"><defs><style>.cls-1{fill:#dfe8ef;opacity:.34;}</style></defs><g id="Layer_1-2"><path class="cls-1" d="M94.82,27.66c-4.78-1.09-9.58,1.44-10.98,6.24-.15.51-.32,1.02-.5,1.52-.61,1.26-1.31,2.46-2.11,3.61-1.01,1.19-2.1,2.28-3.29,3.29-1.3.92-2.68,1.72-4.11,2.41-1.4.52-2.84.92-4.31,1.19-1.27.1-2.54.1-3.81,0-1.37-.26-2.72-.63-4.03-1.11-1.4-.67-2.73-1.46-4-2.35-1.22-1.03-2.34-2.15-3.37-3.37-.86-1.23-1.61-2.52-2.25-3.87-.48-1.33-.84-2.7-1.09-4.1-.37-2.09-2.34-4.31-4.1-5.34-1.91-1.12-4.73-1.59-6.88-.9-2.16.7-4.25,2.04-5.34,4.1-1.18,2.24-1.34,4.4-.9,6.88,1.05,5.96,4.1,11.32,7.96,15.9,3.91,4.65,9.11,7.86,14.7,10.08,5.7,2.26,11.98,2.41,17.95,1.3,5.99-1.12,11.4-4.18,16.05-8.03,5.09-4.21,8.83-10.16,10.68-16.48,1.31-4.48-1.59-9.93-6.24-10.98Z"/><path class="cls-1" d="M8.94,4.31C4.27,4.31-.21,8.41,0,13.24c.22,4.84,3.92,8.93,8.93,8.93,4.67,0,9.15-4.11,8.93-8.93-.22-4.84-3.92-8.93-8.93-8.93Z"/><path class="cls-1" d="M123.76,0c-4.67,0-9.15,4.11-8.93,8.93.22,4.84,3.92,8.93,8.93,8.93,4.67,0,9.15-4.11,8.93-8.93-.22-4.84-3.92-8.93-8.93-8.93Z"/></g></svg>