<?xml version="1.0" encoding="UTF-8"?><svg id="Layer_2" xmlns="http://www.w3.org/2000/svg" viewBox="0 0 295.84 151.28"><defs><style>.cls-1{fill:#dfe8ef;opacity:.34;}</style></defs><g id="Layer_1-2"><path class="cls-1" d="M295.39,8.94c-.22-2.41-.85-4.55-2.62-6.31-1.55-1.55-4.09-2.72-6.31-2.62-2.31.1-4.7.86-6.31,2.62-1.52,1.66-2.82,3.98-2.62,6.31.71,7.97.55,15.98-.41,23.91-1.45,10-4.15,19.77-7.98,29.12-4.06,9.36-9.23,18.21-15.39,26.34-5.9,7.46-12.62,14.24-20.07,20.14-7.27,5.49-15.13,10.06-23.47,13.7-11.66,4.79-23.95,7.83-36.43,9.58-18.68,2.34-37.64,2.04-56.37.44-4.48-.38-8.95-.87-13.4-1.45-13.23-1.86-26.36-4.65-39.03-8.94-3.37-1.14-6.7-2.4-9.99-3.76-9.27-4.02-18.11-8.99-26.19-15.07-4.91-3.89-9.49-8.17-13.65-12.86-3.11-3.51-9.5-3.41-12.63,0-3.44,3.74-3.31,8.89,0,12.63,16.67,18.83,39.56,30.93,63.4,38.11,12.22,3.68,24.75,6,37.39,7.68,12.71,1.69,25.55,2.58,38.37,2.75,28.57.37,57.68-3.51,83.47-16.42,21.5-10.77,39.47-28.41,51.78-48.96,12.29-20.51,19.24-44.56,18.89-68.53-.04-2.81-.19-5.61-.44-8.41Z"/></g></svg>